<svg xmlns="http://www.w3.org/2000/svg" xmlns:xlink="http://www.w3.org/1999/xlink" width="500" zoomAndPan="magnify" viewBox="0 0 375 374.999991" height="500" preserveAspectRatio="xMidYMid meet" version="1.0"><defs><clipPath id="d96bc3829f"><path d="M 136 67 L 241 67 L 241 309.597656 L 136 309.597656 Z M 136 67 " clip-rule="nonzero"/></clipPath></defs><path fill="#45b0cd" d="M 101.300781 275.414062 C 96.128906 275.414062 92.683594 273.691406 89.234375 270.242188 L 20.277344 201.285156 C 13.382812 194.390625 13.382812 184.046875 20.277344 177.152344 L 89.234375 108.195312 C 96.128906 101.300781 106.472656 101.300781 113.371094 108.195312 C 120.265625 115.09375 120.265625 125.433594 113.371094 132.332031 L 56.480469 189.21875 L 113.371094 246.109375 C 120.265625 253.003906 120.265625 263.347656 113.371094 270.242188 C 109.921875 273.691406 106.472656 275.414062 101.300781 275.414062 Z M 101.300781 275.414062 " fill-opacity="1" fill-rule="nonzero"/><path fill="#45b0cd" d="M 273.691406 275.414062 C 268.519531 275.414062 265.070312 273.691406 261.625 270.242188 C 254.730469 263.347656 254.730469 253.003906 261.625 246.109375 L 318.511719 189.21875 L 261.625 132.332031 C 254.730469 125.433594 254.730469 115.09375 261.625 108.195312 C 268.519531 101.300781 278.863281 101.300781 285.757812 108.195312 L 354.714844 177.152344 C 361.609375 184.046875 361.609375 194.390625 354.714844 201.285156 L 285.757812 270.242188 C 282.3125 273.691406 278.863281 275.414062 273.691406 275.414062 Z M 273.691406 275.414062 " fill-opacity="1" fill-rule="nonzero"/><g clip-path="url(#d96bc3829f)"><path fill="#45b0cd" d="M 153.019531 309.890625 C 151.296875 309.890625 149.570312 309.890625 147.847656 308.167969 C 139.226562 304.71875 134.054688 296.101562 137.503906 285.757812 L 206.460938 78.890625 C 209.90625 70.269531 218.527344 65.097656 228.871094 68.546875 C 237.488281 71.996094 242.660156 80.613281 239.214844 90.957031 L 170.257812 297.824219 C 166.808594 304.71875 159.914062 309.890625 153.019531 309.890625 Z M 153.019531 309.890625 " fill-opacity="1" fill-rule="nonzero"/></g></svg>